<?xml version="1.0" encoding="UTF-8"?>
<svg version="1.1" xmlns="http://www.w3.org/2000/svg" width="189" height="48">
<path d="M0 0 C3.3 0 6.6 0 10 0 C10.14892693 5.4259046 10.25748635 10.85060596 10.32958984 16.27807617 C10.35966233 18.12203712 10.4005326 19.96585621 10.45263672 21.80932617 C10.52587858 24.46829291 10.55955005 27.12536075 10.5859375 29.78515625 C10.61690521 30.60210464 10.64787292 31.41905304 10.67977905 32.26075745 C10.68299821 37.80339454 9.35990777 40.64130999 5.58486938 44.6950531 C1.52960057 48.03407303 -4.04606774 47.43664467 -9 47 C-13.13953671 45.29019136 -15.6968919 42.83851349 -18 39 C-18.66861666 34.8545767 -18.95469912 32.55924214 -16.75390625 28.96484375 C-14.28144896 25.96213377 -12.74932947 24.24977649 -9 23 C-7.27204648 22.93197033 -5.54164635 22.91504355 -3.8125 22.9375 C-2.91144531 22.94652344 -2.01039062 22.95554687 -1.08203125 22.96484375 C-0.39496094 22.97644531 0.29210937 22.98804687 1 23 C1.33 21.35 1.66 19.7 2 18 C-0.64 18 -3.28 18 -6 18 C-6 16.68 -6 15.36 -6 14 C-3.36 14 -0.72 14 2 14 C2 13.01 2 12.02 2 11 C-0.97 11 -3.94 11 -7 11 C-7.0825 11.721875 -7.165 12.44375 -7.25 13.1875 C-8.52968239 17.98630897 -11.07810803 20.34150573 -15.0625 23.1875 C-19.70618769 25.69184686 -24.83116894 26.28963624 -30 27 C-30.33 25.68 -30.66 24.36 -31 23 C-30.40832031 22.84144531 -29.81664063 22.68289062 -29.20703125 22.51953125 C-23.9427244 20.96514375 -20.32569064 19.59727824 -17 15 C-15.74533743 11.68809719 -14.87288511 8.44559911 -14 5 C-18.95 5 -23.9 5 -29 5 C-29 3.68 -29 2.36 -29 1 C-25.37506666 0.94212216 -21.75025143 0.9064458 -18.125 0.875 C-17.09246094 0.85824219 -16.05992188 0.84148437 -14.99609375 0.82421875 C-14.00996094 0.81777344 -13.02382812 0.81132812 -12.0078125 0.8046875 C-10.64100342 0.78897705 -10.64100342 0.78897705 -9.24658203 0.77294922 C-7 1 -7 1 -5 3 C-5 3.99 -5 4.98 -5 6 C-2.69 6.33 -0.38 6.66 2 7 C1.34 4.69 0.68 2.38 0 0 Z M-8.25 29.125 C-10.29301899 32.48138834 -10.49304727 34.13779638 -10 38 C-9.53253634 40.35321848 -9.53253634 40.35321848 -8 42 C-4.94091587 42.81584568 -4.94091587 42.81584568 -2 43 C0.50781019 40.33545168 1.89129901 38.65220595 2.5 35 C1.87685348 31.26112086 0.74257375 29.59020855 -2 27 C-6.03113367 26.54225098 -6.03113367 26.54225098 -8.25 29.125 Z " fill="#143272" transform="translate(129,1)"/>
<path d="M0 0 C4.82380802 -0.0246519 9.64757967 -0.04283693 14.47143555 -0.05493164 C16.11369464 -0.05997174 17.75594923 -0.06680378 19.39819336 -0.07543945 C21.75375479 -0.08751926 24.10925709 -0.09323139 26.46484375 -0.09765625 C27.20339096 -0.10281754 27.94193817 -0.10797882 28.7028656 -0.11329651 C30.46898088 -0.1134925 32.23497146 -0.06194719 34 0 C35 1 35 1 35.1328125 4.08984375 C35.13023438 5.35957031 35.12765625 6.62929687 35.125 7.9375 C35.12886719 9.83822266 35.12886719 9.83822266 35.1328125 11.77734375 C35 15 35 15 34 17 C35.98 17 37.96 17 40 17 C40 18.32 40 19.64 40 21 C33.73 21 27.46 21 21 21 C21 22.65 21 24.3 21 26 C22.39025391 25.98259766 22.39025391 25.98259766 23.80859375 25.96484375 C25.00613281 25.95582031 26.20367187 25.94679688 27.4375 25.9375 C28.63246094 25.92589844 29.82742187 25.91429688 31.05859375 25.90234375 C34 26 34 26 35 27 C35.15322744 29.82586751 35.23162755 32.61043882 35.25 35.4375 C35.270625 36.22705078 35.29125 37.01660156 35.3125 37.83007812 C35.328125 40.12109375 35.328125 40.12109375 35 44 C32 46 32 46 26 46 C26 40.72 26 35.44 26 30 C17.42 30 8.84 30 0 30 C0 28.68 0 27.36 0 26 C4.29 26 8.58 26 13 26 C13 24.35 13 22.7 13 21 C7.06 21 1.12 21 -5 21 C-5 19.68 -5 18.36 -5 17 C5.23 17 15.46 17 26 17 C26.33 12.71 26.66 8.42 27 4 C18.09 4 9.18 4 0 4 C0 2.68 0 1.36 0 0 Z " fill="#143272" transform="translate(55,1)"/>
<path d="M0 0 C2.97 0 5.94 0 9 0 C9.02464705 5.67830078 9.04283462 11.35657069 9.05493164 17.03491211 C9.05997256 18.96818585 9.06680519 20.90145576 9.07543945 22.8347168 C9.08751565 25.60726872 9.09323057 28.37977041 9.09765625 31.15234375 C9.10281754 32.02213364 9.10797882 32.89192352 9.11329651 33.78807068 C9.11349185 35.85905814 9.06208168 37.92994324 9 40 C8.67 40.33 8.34 40.66 8 41 C5.69 41 3.38 41 1 41 C1 33.41 1 25.82 1 18 C-1.31 18 -3.62 18 -6 18 C-6.33 17.34 -6.66 16.68 -7 16 C-8.98 17.98 -10.96 19.96 -13 22 C-9.37 23.98 -5.74 25.96 -2 28 C-2 31.3 -2 34.6 -2 38 C-5.43075481 36.2846226 -6.86831465 35.26812938 -9.4375 32.6875 C-14.53459841 28.06432535 -20.55346545 26.13246646 -27 24 C-24.74963891 21.53394934 -22.45692047 20.07262792 -19.5625 18.4375 C-14.11314143 14.93180516 -12.88677271 11.0704861 -11 5 C-15.29 5 -19.58 5 -24 5 C-24 3.68 -24 2.36 -24 1 C-20.68751813 0.97111854 -17.37506833 0.95324201 -14.0625 0.9375 C-13.11697266 0.92912109 -12.17144531 0.92074219 -11.19726562 0.91210938 C-9.84858398 0.90727539 -9.84858398 0.90727539 -8.47265625 0.90234375 C-7.22367554 0.89448853 -7.22367554 0.89448853 -5.94946289 0.88647461 C-4 1 -4 1 -3 2 C-2.76038787 6.23314767 -2.67511353 9.36736489 -5 13 C-2.03 13.495 -2.03 13.495 1 14 C0.67 9.38 0.34 4.76 0 0 Z " fill="#143272" transform="translate(170,1)"/>
<path d="M0 0 C2.97 0 5.94 0 9 0 C9 0.99 9 1.98 9 3 C12.63 3 16.26 3 20 3 C20 4.32 20 5.64 20 7 C18.35 7.33 16.7 7.66 15 8 C15.515625 8.639375 16.03125 9.27875 16.5625 9.9375 C18.56123155 14.19566721 18.43808959 17.54030645 17 22 C14.05684628 25.44564338 11.47149546 27.17653003 7.0625 28 C2.79029357 28.28645062 -0.27016479 27.12088669 -4 25 C-6.79895897 22.00576483 -7.39224713 20.00460355 -7.3125 15.9375 C-7.30863281 15.08027344 -7.30476562 14.22304687 -7.30078125 13.33984375 C-7 11 -7 11 -5 8 C-6.32 7.67 -7.64 7.34 -9 7 C-9 5.68 -9 4.36 -9 3 C-5.7 3 -2.4 3 1 3 C0.67 2.01 0.34 1.02 0 0 Z M1.1875 10.625 C-0.34040738 13.68081477 -0.42256988 15.61944093 0 19 C1.03942845 21.44245747 1.03942845 21.44245747 3 23 C5.54290625 23.58350505 5.54290625 23.58350505 8 23 C9.99825961 20.00261059 10.27550398 19.36652492 10.25 16 C10.25515625 15.319375 10.2603125 14.63875 10.265625 13.9375 C10.09917603 11.67583993 10.09917603 11.67583993 8 9 C4.86213319 8.43679314 3.59088044 8.47024513 1.1875 10.625 Z " fill="#143272" transform="translate(9,0)"/>
<path d="M0 0 C2.97 0 5.94 0 9 0 C9 14.85 9 29.7 9 45 C5.535 45.495 5.535 45.495 2 46 C1.97494385 44.71311279 1.9498877 43.42622559 1.92407227 42.1003418 C1.82998428 37.33119546 1.72976687 32.56219429 1.62768555 27.79321289 C1.58434197 25.72814324 1.54266648 23.66303788 1.50268555 21.59790039 C1.44496917 18.63156365 1.38127849 15.66540655 1.31640625 12.69921875 C1.29969376 11.7741301 1.28298126 10.84904144 1.26576233 9.8959198 C1.24581711 9.03525406 1.22587189 8.17458832 1.20532227 7.2878418 C1.18977798 6.53061325 1.1742337 5.7733847 1.15821838 4.99320984 C1.06367677 2.79075185 1.06367677 2.79075185 0 0 Z " fill="#143272" transform="translate(180,1)"/>
<path d="M0 0 C2.97 0 5.94 0 9 0 C9 3.63 9 7.26 9 11 C11.64 11 14.28 11 17 11 C17 12.32 17 13.64 17 15 C14.36 15 11.72 15 9 15 C9 20.94 9 26.88 9 33 C6.36 33 3.72 33 1 33 C0.67 22.11 0.34 11.22 0 0 Z " fill="#143272" transform="translate(31,0)"/>
<path d="M0 0 C2.97 0 5.94 0 9 0 C9 3.96 9 7.92 9 12 C16.59 12 24.18 12 32 12 C32 13.65 32 15.3 32 17 C28.06731133 17.02473868 24.13465287 17.04287835 20.2019043 17.05493164 C18.20685232 17.06242729 16.21182214 17.07513345 14.21679688 17.08789062 C12.96318359 17.09111328 11.70957031 17.09433594 10.41796875 17.09765625 C9.26063232 17.10289307 8.1032959 17.10812988 6.91088867 17.11352539 C4 17 4 17 1 16 C0.67 10.72 0.34 5.44 0 0 Z " fill="#143272" transform="translate(10,30)"/>
</svg>
