<?xml version="1.0" encoding="UTF-8"?>
<svg version="1.1" xmlns="http://www.w3.org/2000/svg" width="1920" height="372">
<path d="M0 0 C0.84046875 0.76828125 1.6809375 1.5365625 2.546875 2.328125 C29.52760788 28.16074159 53.84928087 71.06155415 55.07177734 109.24169922 C55.07388538 111.16128077 55.04029175 113.0808402 55 115 C55.66 115 56.32 115 57 115 C56.95359375 113.2984375 56.95359375 113.2984375 56.90625 111.5625 C56.97943841 69.84510642 84.00125349 28.00777317 112.46044922 -0.4609375 C147.08936409 -34.42143105 195.19962106 -52.51143719 243.43579102 -52.30249023 C290.8422234 -51.26064387 335.60034695 -33.73270951 370 -1 C370.80655029 -0.23429687 370.80655029 -0.23429687 371.62939453 0.546875 C405.85979714 33.25826169 427.07623279 78.94080131 428.203125 126.546875 C428.79034024 180.20645535 411.29227107 227.61993006 373.98242188 266.35180664 C350.0716753 290.71182129 319.71471035 307.40343982 286.6875 315.8125 C285.92469727 316.00739014 285.16189453 316.20228027 284.37597656 316.40307617 C270.25621472 319.8012242 256.45005535 320.40453456 242 320.375 C240.57001678 320.37468277 240.57001678 320.37468277 239.11114502 320.37435913 C225.04099452 320.34317751 211.64359832 319.71293809 198 316 C197.27425781 315.81808105 196.54851562 315.63616211 195.80078125 315.44873047 C146.93423058 303.1772605 106.65960202 271.89149976 80.58203125 229.0859375 C67.65612651 207.22421504 56.48970023 179.74178855 57 154 C56.34 154 55.68 154 55 154 C55.06380859 155.64935547 55.06380859 155.64935547 55.12890625 157.33203125 C55.12080022 162.60905755 54.08334541 167.55365896 52.9375 172.6875 C52.60359253 174.19111084 52.60359253 174.19111084 52.26293945 175.72509766 C41.00495871 224.57237447 11.22903664 266.66964467 -31.26904297 293.42871094 C-48.36589777 303.75204752 -66.69837348 311.00561026 -86 316 C-87.15338867 316.31759277 -87.15338867 316.31759277 -88.33007812 316.64160156 C-114.52704137 323.62819658 -147.88858955 322.96635537 -174 316 C-174.93569824 315.75862305 -175.87139648 315.51724609 -176.83544922 315.26855469 C-206.7332039 307.37852482 -233.1105465 293.04808869 -255.78125 272.0078125 C-257.33313242 270.60346819 -258.93948628 269.25807589 -260.58203125 267.9609375 C-264.20033609 265.02654488 -267.00314342 261.55075031 -270 258 C-270.76570313 257.12214844 -271.53140625 256.24429687 -272.3203125 255.33984375 C-297.44450771 226.08078882 -314.94072051 187.31057716 -315.23828125 148.37109375 C-315.246353 147.345569 -315.25442474 146.32004425 -315.26274109 145.26344299 C-315.27653733 143.09076602 -315.28727931 140.91806779 -315.29516602 138.74536133 C-315.30658163 136.56690929 -315.32686358 134.38848284 -315.35668945 132.21020508 C-315.62090492 112.86048146 -313.84688893 94.30230583 -307.375 75.9375 C-307.03509033 74.95128662 -306.69518066 73.96507324 -306.3449707 72.94897461 C-297.458241 47.92312658 -283.63518469 23.22895131 -264 5 C-263.195625 4.195625 -262.39125 3.39125 -261.5625 2.5625 C-260.716875 1.716875 -259.87125 0.87125 -259 0 C-258.46246094 -0.57234375 -257.92492187 -1.1446875 -257.37109375 -1.734375 C-230.07213037 -30.23016141 -189.48560811 -46.18570265 -151 -51 C-150.03449219 -51.13148437 -149.06898438 -51.26296875 -148.07421875 -51.3984375 C-93.48647022 -57.68069783 -39.81367367 -36.55753679 0 0 Z " fill="#221E1F" transform="translate(315,52)"/>
<path d="M0 0 C0.84046875 0.76828125 1.6809375 1.5365625 2.546875 2.328125 C26.98719592 25.72843226 44.19516013 58.27359438 52 91 C52.29414795 92.20994629 52.29414795 92.20994629 52.59423828 93.44433594 C55.7731107 107.17352982 56.39240987 120.78293271 56.4375 134.8125 C56.4436734 135.62317932 56.4498468 136.43385864 56.45620728 137.269104 C56.53156642 152.65366367 54.81714224 167.83092419 50.6875 182.6875 C50.47585205 183.46456299 50.2642041 184.24162598 50.04614258 185.04223633 C46.20000741 198.7688395 40.67949148 211.43196698 34 224 C33.39542969 225.16144531 32.79085938 226.32289063 32.16796875 227.51953125 C9.54291475 269.19726231 -30.91444443 299.42910754 -75.8125 313.25 C-79.1953637 314.21986887 -82.59320119 315.11847424 -86 316 C-87.15338867 316.31759277 -87.15338867 316.31759277 -88.33007812 316.64160156 C-114.52704137 323.62819658 -147.88858955 322.96635537 -174 316 C-174.93569824 315.75862305 -175.87139648 315.51724609 -176.83544922 315.26855469 C-206.7332039 307.37852482 -233.1105465 293.04808869 -255.78125 272.0078125 C-257.33313242 270.60346819 -258.93948628 269.25807589 -260.58203125 267.9609375 C-264.20033609 265.02654488 -267.00314342 261.55075031 -270 258 C-270.76570313 257.12214844 -271.53140625 256.24429687 -272.3203125 255.33984375 C-297.44450771 226.08078882 -314.94072051 187.31057716 -315.23828125 148.37109375 C-315.246353 147.345569 -315.25442474 146.32004425 -315.26274109 145.26344299 C-315.27653733 143.09076602 -315.28727931 140.91806779 -315.29516602 138.74536133 C-315.30658163 136.56690929 -315.32686358 134.38848284 -315.35668945 132.21020508 C-315.62090492 112.86048146 -313.84688893 94.30230583 -307.375 75.9375 C-307.03509033 74.95128662 -306.69518066 73.96507324 -306.3449707 72.94897461 C-297.458241 47.92312658 -283.63518469 23.22895131 -264 5 C-263.195625 4.195625 -262.39125 3.39125 -261.5625 2.5625 C-260.716875 1.716875 -259.87125 0.87125 -259 0 C-258.46246094 -0.57234375 -257.92492187 -1.1446875 -257.37109375 -1.734375 C-230.07213037 -30.23016141 -189.48560811 -46.18570265 -151 -51 C-150.03449219 -51.13148437 -149.06898438 -51.26296875 -148.07421875 -51.3984375 C-93.48647022 -57.68069783 -39.81367367 -36.55753679 0 0 Z " fill="#1B9DE9" transform="translate(315,52)"/>
<path d="M0 0 C0.80920332 -0.01097843 1.61840664 -0.02195686 2.45213127 -0.03326797 C6.72776621 -0.08966005 11.00311446 -0.12765836 15.27905273 -0.15087891 C19.6774384 -0.17858142 24.07194328 -0.27158646 28.46899509 -0.37919426 C31.87070386 -0.45027839 35.27148484 -0.4720728 38.67387199 -0.48077774 C40.2947182 -0.49348876 41.91553511 -0.52460788 43.53564644 -0.57503891 C56.07757569 -0.94054586 56.07757569 -0.94054586 60.60353088 2.88172913 C62.70118234 5.71415867 64.3599264 8.56097829 65.99609375 11.6796875 C67.01638147 13.24511563 68.05173073 14.80087254 69.10473633 16.34448242 C70.0987155 17.88537257 71.08976704 19.42815453 72.078125 20.97265625 C73.20593887 22.72093022 74.3343808 24.46879914 75.46337891 26.21630859 C76.04186584 27.11267029 76.62035278 28.00903198 77.21636963 28.93255615 C80.20623237 33.54762293 83.2314036 38.13931543 86.2578125 42.73046875 C86.86722687 43.65519989 87.47664124 44.57993103 88.10452271 45.53268433 C89.34195855 47.40974135 90.57966047 49.28662298 91.81762695 51.16333008 C93.69366357 54.00745362 95.56858126 56.85231239 97.44335938 59.69726562 C102.62209073 67.55320633 107.80382822 75.40681899 113.03125 83.23046875 C118.69177755 91.70260317 124.2863288 100.21808477 129.88708496 108.72979736 C139.46442338 123.28321368 149.0656155 137.81965238 158.74609375 152.3046875 C167.92195966 166.03709552 176.98439805 179.83887231 185.99609375 193.6796875 C190.94609375 201.2696875 195.89609375 208.8596875 200.99609375 216.6796875 C201.49109375 109.7596875 201.49109375 109.7596875 201.99609375 0.6796875 C234.66609375 0.6796875 267.33609375 0.6796875 300.99609375 0.6796875 C301.06228094 39.80616079 301.11765389 78.93258111 301.14928974 118.05909441 C301.15304167 122.68262554 301.15692466 127.30615655 301.16088867 131.9296875 C301.1616756 132.85011512 301.16246253 133.77054274 301.16327331 134.7188621 C301.17631268 149.6050664 301.19995841 164.4912358 301.22755214 179.37741943 C301.25564726 194.66203258 301.27227868 209.94662751 301.27835923 225.23126543 C301.28246717 234.6560027 301.29542256 244.0806413 301.31984315 253.50534819 C301.33575108 259.97595422 301.34048271 266.44650955 301.33659788 272.9171337 C301.33468417 276.64542626 301.33753263 280.37354688 301.35371017 284.10180855 C301.37117396 288.1564127 301.36501659 292.21065575 301.3568573 296.26528931 C301.36559582 297.42681255 301.37433435 298.58833579 301.38333768 299.78505671 C301.30849011 313.62198212 298.96096627 327.54193741 289.30859375 337.9921875 C281.87180056 344.96329915 273.75057978 347.66528941 263.77172852 348.1105957 C263.05075485 348.14286758 262.32978119 348.17513947 261.58695984 348.20838928 C254.93156064 348.49104113 248.27349503 348.66255116 241.6136179 348.79806232 C237.14745622 348.89102403 232.68955727 349.02163579 228.2277832 349.2434082 C199.72248476 350.62263102 199.72248476 350.62263102 192.28286743 345.99026489 C187.86118737 341.55756347 185.5525079 336.2690183 183.24453735 330.52468872 C181.13710319 325.72218682 178.12520276 321.56466658 175.15625 317.26171875 C173.98653281 315.49468394 172.82087781 313.72495378 171.65917969 311.95263672 C170.45904854 310.13244467 169.25885183 308.31229585 168.05859375 306.4921875 C167.43424438 305.54490784 166.80989502 304.59762817 166.16662598 303.62164307 C157.89622749 291.07485494 149.5944653 278.54971779 141.24609375 266.0546875 C134.42766976 255.84943746 127.65843568 245.61513352 120.95581055 235.33325195 C104.53759987 210.16096092 87.98451539 185.07391912 71.28125 160.08984375 C65.17735049 150.95903326 59.08844177 141.81820953 52.99609375 132.6796875 C52.66609375 203.6296875 52.33609375 274.5796875 51.99609375 347.6796875 C19.32609375 347.6796875 -13.34390625 347.6796875 -47.00390625 347.6796875 C-47.07008421 308.28140429 -47.12546071 268.88317364 -47.15710224 229.48485072 C-47.16085421 224.82998827 -47.16473719 220.17512594 -47.16870117 215.52026367 C-47.1694881 214.59359251 -47.17027503 213.66692135 -47.17108581 212.71216925 C-47.18412783 197.7218251 -47.20777503 182.73151559 -47.23536464 167.74119196 C-47.26345236 152.35149246 -47.28008962 136.96181107 -47.28617173 121.57208699 C-47.2902812 112.0813218 -47.30324496 102.59065451 -47.32765565 93.09991946 C-47.34355442 86.58540229 -47.34829726 80.07093549 -47.34441038 73.55640034 C-47.34249526 69.80190373 -47.34536153 66.0475778 -47.36152267 62.2931118 C-47.37896096 58.21188409 -47.37283579 54.1310157 -47.3646698 50.04975891 C-47.37340832 48.87754093 -47.38214685 47.70532295 -47.39115018 46.49758321 C-47.32913217 34.98077137 -45.46907092 24.36723708 -39.00390625 14.6796875 C-38.42640625 13.7928125 -37.84890625 12.9059375 -37.25390625 11.9921875 C-26.6909251 1.1357902 -14.28598752 0.15596276 0 0 Z " fill="#221E1F" transform="translate(1619.00390625,12.3203125)"/>
<path d="M0 0 C117.48 0 234.96 0 356 0 C356 21.78 356 43.56 356 66 C316.07 66 276.14 66 235 66 C235.02320313 83.16257812 235.04640625 100.32515625 235.0703125 118.0078125 C235.08053171 128.88151102 235.09024247 139.75520606 235.09765625 150.62890625 C235.10157159 156.34261079 235.10561244 162.05631523 235.10986328 167.77001953 C235.11039078 168.48607144 235.11091828 169.20212336 235.11146176 169.93987381 C235.12014409 181.47764612 235.1359027 193.01539835 235.15430559 204.55315877 C235.17305407 216.40705521 235.18412716 228.26094118 235.18817699 240.11485183 C235.19066733 246.76750336 235.19687363 253.4201184 235.21146011 260.07275772 C235.22509363 266.34190397 235.229211 272.61098636 235.22621536 278.88014603 C235.22676295 281.17377571 235.23070583 283.46740767 235.23841095 285.76102448 C235.36515782 325.45690232 235.36515782 325.45690232 222.3671875 338.90234375 C198.25863126 360.26586636 130.24006532 347 121 347 C121 254.27 121 161.54 121 66 C81.07 66 41.14 66 0 66 C0 44.22 0 22.44 0 0 Z " fill="#221E20" transform="translate(1194,13)"/>
<path d="M0 0 C15.79406857 -0.51576958 31.58583825 -0.90272494 47.38625526 -1.13986778 C54.72457209 -1.2529528 62.05763656 -1.40681782 69.39257812 -1.65966797 C75.79232419 -1.88017333 82.18826867 -2.02114213 88.59170759 -2.06994689 C91.97949328 -2.0984615 95.35641552 -2.1644368 98.74068069 -2.32606125 C119.29907595 -3.19909746 119.29907595 -3.19909746 125.49392319 2.15575981 C129.89132104 7.41671288 132.96643168 13.20941821 135.79489136 19.4270649 C137.35734139 22.76293221 139.24255341 25.69020608 141.3046875 28.73828125 C141.89894531 29.66640625 142.49320313 30.59453125 143.10546875 31.55078125 C143.68941406 32.46214844 144.27335938 33.37351563 144.875 34.3125 C146.2265706 36.4231719 147.57813285 38.53384914 148.9296875 40.64453125 C149.60225586 41.69463379 150.27482422 42.74473633 150.96777344 43.82666016 C154.31304949 49.05033844 157.65643813 54.27522441 161 59.5 C162.33332409 61.58333925 163.66665743 63.66667258 165 65.75 C167.66666667 69.91666667 170.33333333 74.08333333 173 78.25 C173.6607251 79.28237793 174.3214502 80.31475586 175.00219727 81.37841797 C176.32822488 83.45034624 177.65423415 85.52228624 178.98022461 87.59423828 C182.06318745 92.41153364 185.14631475 97.22872341 188.23013306 102.04547119 C189.31036952 103.73275836 190.39053652 105.42008999 191.47070312 107.10742188 C192.8169375 109.21036315 194.16328275 111.31323345 195.50976562 113.41601562 C196.43499023 114.86137695 196.43499023 114.86137695 197.37890625 116.3359375 C197.97590332 117.2650293 198.57290039 118.19412109 199.18798828 119.15136719 C200.45751673 121.14717128 201.7096914 123.15407096 202.94873047 125.16894531 C203.57279785 126.17795898 204.19686523 127.18697266 204.83984375 128.2265625 C205.39921631 129.14260254 205.95858887 130.05864258 206.53491211 131.00244141 C207.01839111 131.66163574 207.50187012 132.32083008 208 133 C208.66 133 209.32 133 210 133 C211.45413498 131.11348144 211.45413498 131.11348144 212.9140625 128.62890625 C213.50179443 127.67508057 214.08952637 126.72125488 214.69506836 125.73852539 C215.3319458 124.69043701 215.96882324 123.64234863 216.625 122.5625 C217.99224409 120.34298228 219.36077358 118.12425596 220.73046875 115.90625 C221.0830928 115.3336293 221.43571686 114.76100861 221.79902649 114.17103577 C225.44426254 108.25819399 229.18349761 102.40679918 232.9375 96.5625 C233.92943359 95.0161084 233.92943359 95.0161084 234.94140625 93.43847656 C236.28554154 91.34347501 237.63010564 89.24874851 238.97509766 87.15429688 C242.36306326 81.87668467 245.74418356 76.59469381 249.125 71.3125 C249.78862549 70.27577148 250.45225098 69.23904297 251.13598633 68.17089844 C257.77669313 57.79290911 264.39032158 47.39776804 271 37 C284.81293469 15.27174653 284.81293469 15.27174653 290.3125 6.6875 C291.35857422 5.05361328 291.35857422 5.05361328 292.42578125 3.38671875 C294 1 294 1 295 0 C297.49492388 -0.09502416 299.96206014 -0.12557566 302.45727539 -0.11352539 C303.23770706 -0.11367142 304.01813873 -0.11381744 304.82221985 -0.1139679 C307.4140598 -0.11326858 310.00582878 -0.10547536 312.59765625 -0.09765625 C314.3898464 -0.09579213 316.18203706 -0.0943682 317.97422791 -0.09336853 C322.70070797 -0.08954284 327.42715752 -0.07971212 332.15362549 -0.06866455 C336.9728555 -0.05845153 341.79209042 -0.05387115 346.61132812 -0.04882812 C356.07423219 -0.03808989 365.53711356 -0.02101286 375 0 C373.91153775 1.87852085 372.82145248 3.75610132 371.73071289 5.63330078 C371.12385147 6.67898224 370.51699005 7.7246637 369.89173889 8.80203247 C366.87011239 13.91006482 363.65736059 18.89043881 360.4375 23.875 C359.01926553 26.08055833 357.6013017 28.2862907 356.18359375 30.4921875 C355.12760986 32.1333252 355.12760986 32.1333252 354.05029297 33.80761719 C351.01820461 38.52869214 348.00833499 43.26376749 345 48 C340.01474947 55.84281522 335.01219236 63.67437703 330 71.5 C323.21967286 82.08704069 316.46257886 92.68864164 309.71777344 103.29833984 C306.22871102 108.78582772 302.73661182 114.2713837 299.24511719 119.75732422 C296.3525477 124.30244525 293.46064492 128.84798724 290.5703125 133.39453125 C283.72814151 144.15540017 276.86636038 154.90347092 269.98779297 165.64111328 C264.81213343 173.72311442 259.65613341 181.81746985 254.515625 189.921875 C253.979375 190.76621094 253.443125 191.61054688 252.890625 192.48046875 C252.42688477 193.21160889 251.96314453 193.94274902 251.48535156 194.69604492 C250 197 250 197 247.93830872 199.51487732 C245.34723525 204.17368572 245.44709039 207.82397255 245.50170898 213.06591797 C245.49619019 214.06521835 245.49067139 215.06451874 245.48498535 216.09410095 C245.47567666 218.25968336 245.47555079 220.42532052 245.48357964 222.59090805 C245.49624083 226.0321641 245.48488641 229.47262148 245.46754456 232.91384888 C245.44082959 238.99374087 245.43524848 245.07343702 245.43664551 251.15338135 C245.43887138 260.84786216 245.42440966 270.54209781 245.38105965 280.23648453 C245.37131898 283.60187221 245.37989273 286.96686601 245.38975525 290.33224487 C245.35563229 325.2500277 245.35563229 325.2500277 233.6875 337.875 C225.99951239 344.96262416 216.70625243 347.32363034 206.49438477 347.22705078 C205.2639016 347.22748886 205.2639016 347.22748886 204.00856018 347.22793579 C201.31939816 347.22655164 198.63051938 347.21103384 195.94140625 347.1953125 C194.06811169 347.19157911 192.19481516 347.18873368 190.32151794 347.18673706 C185.40766951 347.17912624 180.4939406 347.15949978 175.58013916 347.1373291 C170.55930193 347.11681558 165.53844525 347.10772359 160.51757812 347.09765625 C150.6783331 347.07625139 140.83917652 347.0421464 131 347 C131.00959496 346.28606111 131.01918991 345.57212221 131.02907562 344.83654881 C131.25852472 327.34455072 131.39689223 309.85410437 131.43784332 292.36065006 C131.45977287 283.90015961 131.5108567 275.44184699 131.63427734 266.98217773 C131.74196359 259.59564886 131.79118149 252.21125511 131.77444887 244.82392496 C131.76754271 240.92281383 131.78699749 237.02644945 131.87687683 233.12626839 C132.33946053 211.98624111 129.10395185 198.27452672 115.84135818 181.37823105 C113.47630222 178.32361106 111.45311826 175.15198191 109.4296875 171.86328125 C108.8315625 170.92935547 108.2334375 169.99542969 107.6171875 169.03320312 C101.49068665 159.46569675 95.37966457 149.88856177 89.28417969 140.30126953 C82.2140684 129.18510642 75.10556436 118.09351986 68 107 C59.74448229 94.11112236 51.49636081 81.21781053 43.28417969 68.30126953 C38.90924265 61.42266299 34.52018808 54.55318247 30.125 47.6875 C29.1342749 46.13953735 29.1342749 46.13953735 28.12353516 44.56030273 C24.99709382 39.67661189 21.86870731 34.79418721 18.73501587 29.91514587 C17.64823252 28.22278409 16.56205872 26.53003269 15.47607422 24.8371582 C14.1195501 22.72292882 12.76188458 20.60943114 11.40283203 18.49682617 C10.78263184 17.5297876 10.16243164 16.56274902 9.5234375 15.56640625 C8.98638184 14.73052979 8.44932617 13.89465332 7.89599609 13.03344727 C6.19338945 10.30940817 4.53218554 7.5660825 2.88150024 4.81040955 C2.07185035 3.45928023 2.07185035 3.45928023 1.24584389 2.08085537 C0.8347154 1.3941731 0.42358692 0.70749083 0 0 Z " fill="#221E1F" transform="translate(816,13)"/>
</svg>
