<?xml version="1.0" encoding="UTF-8"?>
<svg version="1.1" xmlns="http://www.w3.org/2000/svg" width="800" height="231">
<path d="M0 0 C8.29371496 6.89706026 13.53728305 14.55920172 15.6875 25.25 C16.65867274 36.71302254 14.88729469 47.40787189 7.375 56.44140625 C-0.29206703 64.65865633 -8.40415623 69.37915229 -19.75 70.48828125 C-30.41777647 70.79725648 -40.20421334 68.20424859 -48.3828125 61.1640625 C-56.62750292 52.98613071 -61.15829387 43.5756088 -61.5 31.9375 C-61.3126101 21.73326831 -58.13418533 12.57970024 -51.19921875 4.9140625 C-37.04889186 -8.23425506 -16.40743318 -11.57055982 0 0 Z M-37.6875 19.625 C-41.20989541 24.15516522 -42.5624491 28.00078051 -42.1875 33.75 C-41.34972478 39.48924175 -38.65712971 43.20347263 -34.375 47 C-29.33257081 50.70464186 -25.61209008 51.97290378 -19.3125 51.25 C-13.56947001 49.10522645 -8.49664323 46.68957801 -5.3125 41.25 C-2.6837157 35.2037961 -2.47963354 29.86621419 -4.75 23.6875 C-7.24048335 18.44673467 -11.25975887 15.85546504 -16.3125 13.25 C-24.81291867 10.41652711 -31.85615558 13.22612814 -37.6875 19.625 Z " fill="#231F20" transform="translate(88.3125,76.75)"/>
<path d="M0 0 C8.29371496 6.89706026 13.53728305 14.55920172 15.6875 25.25 C16.65867274 36.71302254 14.88729469 47.40787189 7.375 56.44140625 C-0.29206703 64.65865633 -8.40415623 69.37915229 -19.75 70.48828125 C-30.41457174 70.79716366 -40.21225655 68.20838308 -48.3828125 61.16015625 C-56.2736885 53.34914742 -61.3057827 43.37777513 -61.5625 32.125 C-61.38924722 21.67785755 -57.52970552 11.88847056 -50.42578125 4.2109375 C-36.53791997 -8.61282439 -15.83645831 -11.16790702 0 0 Z M-37.6875 19.625 C-41.20989541 24.15516522 -42.5624491 28.00078051 -42.1875 33.75 C-41.34972478 39.48924175 -38.65712971 43.20347263 -34.375 47 C-29.30706151 50.72338338 -25.63901984 51.88265198 -19.3125 51.25 C-12.98272232 49.33584043 -8.95541512 46.76956836 -5.3125 41.25 C-3.03551595 36.15389284 -2.35896375 31.39775318 -4 25.98046875 C-6.60373812 19.43857671 -9.71396766 15.85785487 -16.25 12.9375 C-25.04966476 10.96206505 -31.64317106 12.9924152 -37.6875 19.625 Z " fill="#231F20" transform="translate(344.3125,76.75)"/>
<path d="M0 0 C0 32.34 0 64.68 0 98 C-6.74950133 95.75016622 -6.74950133 95.75016622 -9.91210938 94.27929688 C-10.6214563 93.95135132 -11.33080322 93.62340576 -12.06164551 93.28552246 C-12.81473999 92.93348755 -13.56783447 92.58145264 -14.34375 92.21875 C-15.14872925 91.84576782 -15.9537085 91.47278564 -16.78308105 91.08850098 C-19.35679459 89.89533864 -21.92847941 88.69788024 -24.5 87.5 C-38.6364171 80.93145254 -52.80857853 74.45064612 -67 68 C-67 48.2 -67 28.4 -67 8 C-59.10021695 6.68336949 -51.26018346 5.46094067 -43.3203125 4.4921875 C-41.73571732 4.29666794 -41.73571732 4.29666794 -40.11911011 4.09719849 C-37.90932046 3.82536748 -35.69936739 3.55486193 -33.48925781 3.28564453 C-30.11204672 2.87341891 -26.73570795 2.45450659 -23.359375 2.03515625 C-21.20057023 1.77043021 -19.04171768 1.50609347 -16.8828125 1.2421875 C-15.87960968 1.11721893 -14.87640686 0.99225037 -13.84280396 0.86349487 C-12.9009726 0.74982574 -11.95914124 0.63615662 -10.98876953 0.51904297 C-10.16780792 0.41848602 -9.34684631 0.31792908 -8.50100708 0.21432495 C-5.67678877 -0.02769774 -2.83456947 0 0 0 Z M-23.23828125 15.83984375 C-23.95606247 15.92625626 -24.67384369 16.01266876 -25.41337585 16.10169983 C-26.93410567 16.28520114 -28.45475913 16.46933604 -29.9753418 16.65405273 C-32.29253527 16.93507871 -34.61011199 17.2127708 -36.92773438 17.49023438 C-38.4062747 17.66906671 -39.88479113 17.84809683 -41.36328125 18.02734375 C-42.05303543 18.10967758 -42.74278961 18.19201141 -43.45344543 18.27684021 C-47.02180809 18.71347693 -50.46683278 19.29336656 -54 20 C-54 32.87 -54 45.74 -54 59 C-48.62634549 61.42451142 -43.25178506 63.84674661 -37.87451172 66.26318359 C-36.04448153 67.08638844 -34.2150515 67.91092879 -32.38623047 68.73681641 C-29.76164841 69.92179031 -27.13496513 71.10198828 -24.5078125 72.28125 C-23.68693146 72.65310425 -22.86605042 73.0249585 -22.02029419 73.40808105 C-21.25965668 73.74843384 -20.49901917 74.08878662 -19.71533203 74.43945312 C-18.70939499 74.89245789 -18.70939499 74.89245789 -17.68313599 75.35461426 C-15.98920073 76.11934161 -15.98920073 76.11934161 -14 76 C-14 55.87 -14 35.74 -14 15 C-17.10330465 15 -20.16143061 15.46682401 -23.23828125 15.83984375 Z " fill="#ED1C24" transform="translate(770,33)"/>
<path d="M0 0 C8.64413883 5.26435842 14.13449145 12.32816313 17.3046875 21.9453125 C19.74498176 32.66615581 18.31620871 42.84778096 12.64453125 52.24609375 C6.38727257 61.12032925 -1.16067496 66.45122942 -11.88671875 68.5703125 C-22.3276858 69.85325486 -31.84594599 67.59343199 -40.67578125 61.86328125 C-48.30969403 55.74332092 -52.52919774 48.41804623 -54.6875 39 C-55.96493688 26.73660591 -53.37871561 17.45894537 -46.171875 7.46484375 C-43.84754836 4.82698383 -41.60276802 3.16839183 -38.625 1.3125 C-37.70976562 0.73113281 -36.79453125 0.14976562 -35.8515625 -0.44921875 C-25.25657837 -6.21114848 -10.45558925 -6.15484413 0 0 Z M-31.75 20.8125 C-35.35073126 25.91353595 -36.54239884 29.93352332 -35.5390625 36.046875 C-34.08354151 41.32050178 -30.55001294 45.16888084 -26 48 C-21.41799427 49.78189112 -17.48282425 50.51212584 -12.75 48.9375 C-7.93202316 46.75360593 -5.03604301 43.60765295 -2.1875 39.1875 C-0.2830873 34.07565539 -0.30951772 30.03083024 -2.0625 24.875 C-4.86208569 20.72077607 -8.48776317 17.25611841 -13 15 C-20.81839261 14.26878342 -26.07969671 15.01332618 -31.75 20.8125 Z " fill="#231F20" transform="translate(503,132)"/>
<path d="M0 0 C18.48 0 36.96 0 56 0 C56 5.94 56 11.88 56 18 C50.06 18 44.12 18 38 18 C38.65873123 33.83243592 38.65873123 33.83243592 45 48 C45.59039063 48.8353125 46.18078125 49.670625 46.7890625 50.53125 C51.24197581 56.42115924 56.32556599 61.29757552 62 66 C58 70.66666667 54 75.33333333 50 80 C42.49684565 76.56382091 37.06251878 70.16584329 31.76171875 64.015625 C30.23381311 62.26751123 28.66375453 60.61768133 27 59 C26.66742187 60.29744141 26.66742187 60.29744141 26.328125 61.62109375 C24.79636299 65.51807651 22.60489309 68.09662581 19.75 71.0625 C19.28464844 71.56587891 18.81929687 72.06925781 18.33984375 72.58789062 C16.92487187 74.09446537 15.47626779 75.55355086 14 77 C13.49791016 77.50128418 12.99582031 78.00256836 12.47851562 78.51904297 C10.17813049 80.65227463 8.68108001 81.96504566 5.48828125 82.12890625 C2.17632931 80.62630953 -0.23439986 78.4398749 -2.8125 75.9375 C-3.31458984 75.46505859 -3.81667969 74.99261719 -4.33398438 74.50585938 C-5.56422789 73.34591548 -6.78327065 72.17411185 -8 71 C-6.88736422 67.66209265 -6.09509961 67.02812376 -3.4375 64.875 C6.58949721 56.31886821 15.9760246 45.71716134 17.16650391 32.09472656 C17.52824753 27.39739488 17.76459538 22.70809249 18 18 C12.06 18 6.12 18 0 18 C0 12.06 0 6.12 0 0 Z " fill="#231F20" transform="translate(544,67)"/>
<path d="M0 0 C7.59 0 15.18 0 23 0 C23 13.2 23 26.4 23 40 C28.61 40 34.22 40 40 40 C40 45.94 40 51.88 40 58 C34.39 58 28.78 58 23 58 C23.02094727 59.79663086 23.04189453 61.59326172 23.06347656 63.44433594 C23.12800267 69.38345581 23.17395019 75.32247644 23.20724869 81.26183701 C23.22811513 84.86258286 23.25641421 88.46294916 23.30175781 92.06347656 C23.34525125 95.53887913 23.36914421 99.01391688 23.37950897 102.48957062 C23.39048615 104.45945784 23.421707 106.42919847 23.45318604 108.39886475 C23.45348816 109.59980774 23.45379028 110.80075073 23.45410156 112.03808594 C23.46298401 113.09509705 23.47186646 114.15210815 23.48101807 115.2411499 C23 118 23 118 21.48724365 120.35699463 C17.98810645 122.6684293 14.787311 122.43545952 10.75 122.25 C10.00492187 122.23195313 9.25984375 122.21390625 8.4921875 122.1953125 C6.66090299 122.14835649 4.83028351 122.07661652 3 122 C2.99668985 121.40769781 2.99337971 120.81539562 2.98996925 120.20514488 C2.90869216 105.78245038 2.81658429 91.35985498 2.71247292 76.93730736 C2.66238532 69.96262167 2.61594204 62.9879475 2.578125 56.01318359 C2.54162287 49.2828318 2.49490288 42.55262192 2.44193649 35.82237625 C2.42339636 33.25397587 2.40828701 30.68554836 2.39665604 28.11710739 C2.37978745 24.52113625 2.35074999 20.92545466 2.31884766 17.32958984 C2.31668747 16.26647583 2.31452728 15.20336182 2.31230164 14.10803223 C2.30113815 13.12374237 2.28997467 12.13945251 2.2784729 11.12533569 C2.27294214 10.27544256 2.26741138 9.42554943 2.26171303 8.54990196 C2.02747464 5.35670891 2.02747464 5.35670891 0 0 Z " fill="#231F20" transform="translate(364,61)"/>
<path d="M0 0 C7.59 0 15.18 0 23 0 C23 13.2 23 26.4 23 40 C28.28 40 33.56 40 39 40 C39 45.94 39 51.88 39 58 C33.72 58 28.44 58 23 58 C23.02094727 59.79663086 23.04189453 61.59326172 23.06347656 63.44433594 C23.12800267 69.38345581 23.17395019 75.32247644 23.20724869 81.26183701 C23.22811513 84.86258286 23.25641421 88.46294916 23.30175781 92.06347656 C23.34525125 95.53887913 23.36914421 99.01391688 23.37950897 102.48957062 C23.39048615 104.45945784 23.421707 106.42919847 23.45318604 108.39886475 C23.45348816 109.59980774 23.45379028 110.80075073 23.45410156 112.03808594 C23.46298401 113.09509705 23.47186646 114.15210815 23.48101807 115.2411499 C23 118 23 118 21.48724365 120.35699463 C17.98810645 122.6684293 14.787311 122.43545952 10.75 122.25 C10.00492188 122.23195313 9.25984375 122.21390625 8.4921875 122.1953125 C6.66090299 122.14835649 4.83028351 122.07661652 3 122 C2.99668985 121.40769781 2.99337971 120.81539562 2.98996925 120.20514488 C2.90869216 105.78245038 2.81658429 91.35985498 2.71247292 76.93730736 C2.66238532 69.96262167 2.61594204 62.9879475 2.578125 56.01318359 C2.54162287 49.2828318 2.49490288 42.55262192 2.44193649 35.82237625 C2.42339636 33.25397587 2.40828701 30.68554836 2.39665604 28.11710739 C2.37978745 24.52113625 2.35074999 20.92545466 2.31884766 17.32958984 C2.31668747 16.26647583 2.31452728 15.20336182 2.31230164 14.10803223 C2.30113815 13.12374237 2.28997467 12.13945251 2.2784729 11.12533569 C2.27294214 10.27544256 2.26741138 9.42554943 2.26171303 8.54990196 C2.02747464 5.35670891 2.02747464 5.35670891 0 0 Z " fill="#231F20" transform="translate(108,61)"/>
<path d="M0 0 C7.92 0 15.84 0 24 0 C24.05607422 2.71476562 24.05607422 2.71476562 24.11328125 5.484375 C24.17899155 7.90626898 24.24543709 10.32814309 24.3125 12.75 C24.34633789 14.53083984 24.34633789 14.53083984 24.38085938 16.34765625 C24.86127271 32.3323181 28.82242763 44.78737177 40.6015625 56.0078125 C45.46379638 60.04647582 50.72584603 63.52677665 56 67 C54.42219077 70.71045247 52.09296752 73.29906384 49.375 76.25 C48.55773437 77.14203125 47.74046875 78.0340625 46.8984375 78.953125 C46.27195312 79.62859375 45.64546875 80.3040625 45 81 C34.81757234 79.12123772 24.0305064 68.249754 17.97265625 60.359375 C16.57762787 58.27175606 15.24713715 56.17854338 14 54 C13.55011719 54.66644531 13.10023438 55.33289063 12.63671875 56.01953125 C5.03646643 66.90967235 -3.74484081 75.84650403 -15 83 C-18.89332736 81.36851044 -21.64719075 78.82372058 -24.75 76 C-25.25660156 75.54882812 -25.76320312 75.09765625 -26.28515625 74.6328125 C-27.56545817 73.46639188 -28.78791729 72.23716029 -30 71 C-30 70.34 -30 69.68 -30 69 C-28.41796875 67.84375 -28.41796875 67.84375 -26.1875 66.5 C-12.71323758 57.76510749 -2.25514496 46.00604133 1.25 30.0625 C2.06209196 24.94342031 2.20605387 19.86006424 2.25 14.6875 C2.2593457 13.92252197 2.26869141 13.15754395 2.27832031 12.36938477 C2.27413086 11.63260498 2.26994141 10.8958252 2.265625 10.13671875 C2.26336914 9.48405029 2.26111328 8.83138184 2.25878906 8.15893555 C1.9891457 5.29720103 1.9891457 5.29720103 0 0 Z " fill="#231F20" transform="translate(184,69)"/>
<path d="M0 0 C7.26 0 14.52 0 22 0 C22.09025115 15.46384044 22.16395322 30.92755084 22.20724869 46.39158344 C22.22788478 53.57161695 22.25602505 60.75147536 22.30175781 67.93139648 C22.34159393 74.18853644 22.3674252 80.44554961 22.37635398 86.70281285 C22.38157436 90.01688791 22.39595287 93.33051505 22.42292023 96.64449501 C22.45181876 100.34175038 22.45596154 104.03824618 22.45410156 107.7355957 C22.46848267 108.83754776 22.48286377 109.93949982 22.49768066 111.07484436 C22.49218201 112.08025269 22.48668335 113.08566101 22.48101807 114.12153625 C22.48470524 114.9963178 22.48839241 115.87109934 22.49219131 116.77238941 C22 119 22 119 18 122 C13.05 122 8.1 122 3 122 C3 99.56 3 77.12 3 54 C-2.28 54 -7.56 54 -13 54 C-13 48.06 -13 42.12 -13 36 C-7.72 36 -2.44 36 3 36 C2.90270717 31.83689119 2.79976222 27.67469657 2.68261719 23.51220703 C2.64449762 22.09822937 2.60961596 20.68416035 2.578125 19.27001953 C2.53210142 17.2291616 2.47417333 15.1889234 2.4140625 13.1484375 C2.36693115 11.31031494 2.36693115 11.31031494 2.31884766 9.43505859 C2.08439796 5.49588446 2.08439796 5.49588446 0 0 Z " fill="#231F20" transform="translate(607,61)"/>
<path d="M0 0 C20.79 0 41.58 0 63 0 C61.86309473 18.1904843 59.64077071 32.50329966 46.171875 45.13671875 C36.60595592 53.34345148 17.68402502 66.57618009 4.46484375 65.86328125 C1.2811987 64.74824867 -0.07921901 63.1851959 -2.25 60.625 C-2.93578125 59.83351562 -3.6215625 59.04203125 -4.328125 58.2265625 C-6 56 -6 56 -7 53 C-5.15148437 52.36384766 -5.15148437 52.36384766 -3.265625 51.71484375 C11.49949133 46.52964451 28.00762423 40.3548131 36.5625 26.25 C38.22760713 22.80357882 38.22760713 22.80357882 39 18 C26.13 18 13.26 18 0 18 C0 12.06 0 6.12 0 0 Z " fill="#231F20" transform="translate(419,67)"/>
<path d="M0 0 C7.26 0 14.52 0 22 0 C22.09025115 15.46384044 22.16395322 30.92755084 22.20724869 46.39158344 C22.22788478 53.57161695 22.25602505 60.75147536 22.30175781 67.93139648 C22.34159393 74.18853644 22.3674252 80.44554961 22.37635398 86.70281285 C22.38157436 90.01688791 22.39595287 93.33051505 22.42292023 96.64449501 C22.45181876 100.34175038 22.45596154 104.03824618 22.45410156 107.7355957 C22.46848267 108.83754776 22.48286377 109.93949982 22.49768066 111.07484436 C22.49218201 112.08025269 22.48668335 113.08566101 22.48101807 114.12153625 C22.48470524 114.9963178 22.48839241 115.87109934 22.49219131 116.77238941 C22 119 22 119 20.19942856 120.78659344 C16.96770761 122.56950718 13.83395435 122.31961174 10.25 122.1875 C9.55261719 122.17396484 8.85523438 122.16042969 8.13671875 122.14648438 C6.42414459 122.1112945 4.71197059 122.05749155 3 122 C2.99503478 121.12977329 2.99503478 121.12977329 2.98996925 120.24196625 C2.90862243 106.1023049 2.81649205 91.96274785 2.71247292 77.82323456 C2.66242725 70.98536905 2.61598369 64.14751505 2.578125 57.30957031 C2.54156971 50.70889257 2.49483731 44.10833706 2.44193649 37.50776672 C2.42342374 34.9912592 2.40830431 32.47472432 2.39665604 29.95817566 C2.3797405 26.4296667 2.35069186 22.90144837 2.31884766 19.37304688 C2.31668747 18.33582489 2.31452728 17.29860291 2.31230164 16.22994995 C2.30113815 15.25973907 2.28997467 14.2895282 2.2784729 13.28991699 C2.27294214 12.45661613 2.26741138 11.62331528 2.26171303 10.76476288 C1.91617675 7.11448271 0.88928063 3.55712252 0 0 Z " fill="#231F20" transform="translate(242,61)"/>
<path d="M0 0 C7.26 0 14.52 0 22 0 C22.02255511 15.48113058 22.04098391 30.96225305 22.05181217 46.44339561 C22.05697308 53.63121503 22.06401189 60.81902353 22.07543945 68.00683594 C22.08539253 74.27019115 22.09185492 80.53353845 22.09408849 86.79690135 C22.09539454 90.11468721 22.09899419 93.43244512 22.10573006 96.75022507 C22.11294526 100.44987096 22.11399073 104.14946935 22.11352539 107.84912109 C22.11712067 108.95466843 22.12071594 110.06021576 22.12442017 111.19926453 C22.1230455 112.20329819 22.12167084 113.20733185 22.12025452 114.24179077 C22.12117631 115.11749411 22.1220981 115.99319744 22.12304783 116.89543724 C22 119 22 119 21 121 C17.38132441 122.2062252 14.07493749 122.10816918 10.3125 122.0625 C9.61060547 122.05798828 8.90871094 122.05347656 8.18554688 122.04882812 C6.45699462 122.03706927 4.72848635 122.01913454 3 122 C2.99668985 121.40162229 2.99337971 120.80324457 2.98996925 120.1867342 C2.90872596 105.62252294 2.81662912 91.05840825 2.71247292 76.49434376 C2.66236495 69.45124798 2.61592185 62.40816373 2.578125 55.36499023 C2.54164866 48.56980678 2.49493471 41.77475542 2.44193649 34.97968102 C2.42338305 32.3853342 2.40827863 29.79096038 2.39665604 27.19657326 C2.37981018 23.56687103 2.35077832 19.93745779 2.31884766 16.30786133 C2.31668747 15.2318013 2.31452728 14.15574127 2.31230164 13.04707336 C2.30113815 12.05574402 2.28997467 11.06441467 2.2784729 10.04304504 C2.27294214 9.18485578 2.26741138 8.32666651 2.26171303 7.4424715 C2.05642711 4.48770752 2.05642711 4.48770752 0 0 Z " fill="#231F20" transform="translate(633,61)"/>
<path d="M0 0 C7.59 0 15.18 0 23 0 C23.06774067 8.81427729 23.12279559 17.62838206 23.15543652 26.4428606 C23.17110146 30.53565443 23.19235458 34.62826114 23.22631836 38.72094727 C23.25888267 42.66964752 23.27684677 46.61816765 23.28463173 50.56699181 C23.29018054 52.07451908 23.30101595 53.58203636 23.31719017 55.08948708 C23.3389263 57.19895459 23.34196864 59.30767509 23.34057617 61.41723633 C23.34723801 62.61858719 23.35389984 63.81993805 23.36076355 65.05769348 C23 68 23 68 21.59753418 69.89013672 C19.58371109 71.28921057 18.42579804 71.34795033 15.98828125 71.29296875 C15.23095703 71.28330078 14.47363281 71.27363281 13.69335938 71.26367188 C12.90767578 71.23853516 12.12199219 71.21339844 11.3125 71.1875 C10.11657227 71.16719727 10.11657227 71.16719727 8.89648438 71.14648438 C6.93070033 71.11117089 4.96526418 71.05736447 3 71 C3 66.38 3 61.76 3 57 C-3.6 57 -10.2 57 -17 57 C-17 51.39 -17 45.78 -17 40 C-10.4 40 -3.8 40 3 40 C3 37.69 3 35.38 3 33 C-3.6 33 -10.2 33 -17 33 C-17 27.39 -17 21.78 -17 16 C-10.4 16 -3.8 16 3 16 C2.690625 13.916875 2.38125 11.83375 2.0625 9.6875 C1.88847656 8.51574219 1.71445312 7.34398438 1.53515625 6.13671875 C1.07906969 2.98358597 1.07906969 2.98358597 0 0 Z " fill="#231F20" transform="translate(501,61)"/>
</svg>
