<svg xmlns="http://www.w3.org/2000/svg" width="348" height="90"><path fill="#f26930" d="M14.445 19.39s.16 10.07-8.9 10.29c0 0-.84.07-.84 1.04v2.08s.05.64.98.64c0 0 16.5 1.18 16.5-20.21V2.05c0-.95-.76-1.74-1.73-1.74H2.215c-.96 0-1.72.79-1.72 1.74v16.28c0 .97.76 1.72 1.72 1.72h18.24"/><path d="M71.315 18.58h1.62c1.08 0 1.9.39 2.42 1.11.53.77.81 1.55.81 2.37v15.16h-17.98v6.64h17.98v45.79h12.12V15.33h-16.97"/><path d="M214.845 82.68c-.13-.12-.2-.27-.2-.48V61.54h-16.38v3.21h.83c1.08 0 1.86.3 2.39.96.55.65.8 1.45.8 2.35v14.89c0 2.48.48 4.21 1.46 5.24.95.95 2.63 1.5 5.01 1.5h50.65v-6.84h-43.95c-.26 0-.45-.07-.61-.17"/><path d="M294.155 82.68c-.14-.12-.19-.27-.19-.48V64h-16.4v3.19h.81c1.07 0 1.88.32 2.42.99.57.63.8 1.39.8 2.31v12.46c0 2.48.5 4.21 1.47 5.24.96.95 2.63 1.5 5 1.5h53.19v-6.84h-46.47c-.27 0-.48-.07-.63-.17"/><path d="M294.695 24.31h32.05v11.6c0 .45-.09.77-.25.9-.22.19-.56.39-1.06.39h-29.46c-.47 0-.75-.11-.92-.22-.21-.17-.36-.41-.36-1.01Zm-13.91-3.24c.57.69.8 1.44.8 2.38V37.7c0 2.14.58 3.79 1.71 4.88 1.15 1.11 2.69 1.66 4.67 1.66h45.71c1.99 0 3.55-.55 4.67-1.66 1.16-1.09 1.72-2.74 1.72-4.88V18.52c0-.94-.66-1.52-1.5-1.52h-61.82v3.15h1.63c1.07 0 1.88.3 2.41.92"/><path d="M46.215 45.09c4.13-7.56 7.13-16.85 7.46-28.06h-19.37v3.02h1.45c1.11 0 1.98.34 2.54 1 .57.7.86 1.45.86 2.31 0 0-1.31 27.11-23.56 43.41l3.86 4.99s13.52-6.65 23.57-21.46c4.54 4.91 11.99 13.64 16.95 22.93l10.74-8.22s-10.34-11.06-24.5-19.92"/><path d="M245.475 19.69c.56.77.82 1.54.82 2.37v50.11h12.11V15.33h-16.94v3.25h1.6c1.06 0 1.88.39 2.41 1.11"/><path d="M212.245 41.57c5.24 3.84 14.12 10.87 19.26 18.3l8.84-9.12s-12.75-8.82-24.76-14.1c3.12-5.42 5.41-11.89 5.93-19.61h-19.32v3.01h1.44c1.33 0 2.1.4 2.69 1.01.64.7.8 1.82.65 2.56 0 0-3.42 20.18-22.18 30.21l3.6 5.41s14.01-4.93 23.85-17.67"/><path d="M271.695 51.22v6.61h34.36v15.82h13.19V57.83h28.26v-6.61"/><path d="M100.935 52.44h31.32v6.07h-23.71v6.61h48.5v5.37h-49.99v3.17h.83c1.09 0 1.89.27 2.41.92.52.64.79 1.44.79 2.36v6.01c0 2.48.5 4.21 1.47 5.24.95.95 2.62 1.5 5 1.5h52.76v-6.68h-46.05c-.29 0-.48-.08-.62-.15-.14-.13-.17-.29-.17-.51V77.1h44.21c.61 0 .98-.14 1.25-.45.27-.29.37-.65.37-1.06V59.38c0-.26-.06-.48-.21-.64-.14-.17-.33-.23-.6-.23h-23.04v-6.07h31.22v-6.62h-75.74"/><path d="M138.785 17.85c7.81 0 13.53 4.12 13.53 9.21 0 5.02-5.72 9.18-13.53 9.18-7.82 0-13.49-4.16-13.49-9.18 0-5.09 5.67-9.21 13.49-9.21m0 24.95c17.41 0 26.4-7.06 26.4-15.74 0-8.77-8.99-15.85-26.4-15.85-17.42 0-26.4 7.08-26.4 15.85 0 8.68 8.98 15.74 26.4 15.74"/></svg>